<?xml version="1.0" standalone="no"?>
<!DOCTYPE svg PUBLIC "-//W3C//DTD SVG 20010904//EN"
 "http://www.w3.org/TR/2001/REC-SVG-20010904/DTD/svg10.dtd">
<svg version="1.0" xmlns="http://www.w3.org/2000/svg"
 width="142.000000pt" height="142.000000pt" viewBox="0 0 142.000000 142.000000"
 preserveAspectRatio="xMidYMid meet">
<metadata>
Created by potrace 1.10, written by Peter Selinger 2001-2011
</metadata>
<g transform="translate(0.000000,142.000000) scale(0.100000,-0.100000)"
fill="#d4810c" stroke="none">
<path d="M704 1195 l-29 -54 29 -58 c15 -32 82 -149 147 -260 65 -111 119
-204 119 -207 0 -3 -64 -7 -142 -8 l-143 -3 -26 -55 -26 -55 265 -3 c146 -1
267 0 269 2 2 2 -45 89 -105 192 -60 104 -157 273 -216 377 -59 103 -109 187
-111 187 -1 0 -15 -25 -31 -55z"/>
<path d="M633 1065 c-13 -19 -93 -155 -179 -302 -228 -388 -234 -399 -234
-407 0 -4 30 -6 66 -4 l67 3 131 230 c72 127 140 243 151 259 l19 28 22 -27
c12 -15 42 -65 68 -111 50 -90 61 -98 134 -92 l41 3 -129 224 c-72 124 -131
226 -133 227 -1 1 -12 -13 -24 -31z"/>
<path d="M624 768 c-194 -329 -234 -399 -234 -408 0 -7 140 -10 430 -10 268 0
430 4 430 10 0 5 -12 30 -27 55 l-28 45 -307 0 c-170 0 -308 3 -308 6 0 3 27
53 60 112 36 65 60 119 60 137 0 27 -32 95 -45 95 -3 0 -17 -19 -31 -42z"/>
</g>
</svg>
