<?xml version="1.0" standalone="no"?>
<!DOCTYPE svg PUBLIC "-//W3C//DTD SVG 20010904//EN"
 "http://www.w3.org/TR/2001/REC-SVG-20010904/DTD/svg10.dtd">
<svg version="1.0" xmlns="http://www.w3.org/2000/svg"
 width="900.000000pt" height="273.000000pt" viewBox="0 0 900.000000 273.000000"
 preserveAspectRatio="xMidYMid meet">
<metadata>
Created by potrace 1.10, written by Peter Selinger 2001-2011
</metadata>
<g transform="translate(0.000000,273.000000) scale(0.100000,-0.100000)"
fill="#000000" stroke="none">
<path d="M1724 2172 c-17 -26 -48 -80 -85 -151 -18 -34 -18 -34 9 -85 15 -28
30 -53 34 -56 4 -3 12 -17 18 -30 5 -14 19 -38 30 -55 10 -16 29 -50 42 -75
13 -25 26 -47 30 -50 4 -3 12 -17 18 -30 5 -14 19 -38 30 -55 11 -16 24 -39
29 -50 5 -11 21 -37 35 -58 14 -21 26 -44 26 -52 0 -8 4 -15 8 -15 5 0 21 -24
36 -52 15 -29 36 -66 47 -83 10 -16 23 -39 29 -50 6 -11 24 -42 41 -70 51 -86
55 -95 38 -106 -8 -6 -102 -7 -233 -4 -233 5 -261 3 -270 -23 -3 -10 -22 -44
-41 -77 -63 -107 -65 -111 -35 -115 52 -8 980 2 980 10 0 5 -27 54 -60 108
-33 55 -60 105 -60 111 0 6 -4 11 -9 11 -5 0 -13 9 -16 20 -5 17 -130 236
-165 290 -6 8 -13 22 -17 30 -4 8 -31 55 -61 105 -30 49 -58 98 -63 110 -5 11
-13 27 -19 35 -20 31 -160 270 -160 274 0 9 -151 255 -159 261 -5 2 -17 -8
-27 -23z"/>
<path d="M3068 2029 c-28 -16 -21 -58 30 -182 7 -16 12 -34 12 -40 0 -7 7 -21
15 -31 8 -11 15 -29 15 -41 0 -12 4 -25 8 -30 5 -6 26 -57 47 -115 35 -96 59
-147 76 -160 3 -3 11 -15 18 -27 10 -20 19 -23 79 -23 39 0 75 5 85 13 9 6 26
39 38 72 11 33 25 64 30 70 5 5 9 18 9 30 0 12 7 30 15 41 8 10 15 26 15 34 0
8 6 27 14 42 8 15 17 40 21 57 4 17 11 33 16 36 5 4 9 13 9 22 0 8 7 31 16 51
9 21 22 52 30 70 19 45 18 108 -2 116 -19 7 -112 8 -139 0 -14 -4 -26 -25 -42
-72 -29 -89 -52 -153 -62 -177 -5 -11 -12 -29 -15 -40 -3 -11 -14 -45 -24 -75
l-19 -55 -7 35 c-8 36 -31 109 -47 145 -11 27 -39 105 -46 130 -3 11 -11 34
-19 52 -8 17 -14 35 -14 41 0 5 -7 13 -16 16 -25 10 -127 6 -146 -5z"/>
<path d="M3853 2033 c-10 -3 -13 -68 -13 -275 l0 -271 53 -54 c55 -54 90 -66
115 -41 17 17 17 619 0 636 -12 12 -130 16 -155 5z"/>
<path d="M4042 2028 c-14 -14 -16 -87 -2 -123 l10 -25 172 2 173 3 0 75 0 75
-170 3 c-124 2 -174 -1 -183 -10z"/>
<path d="M4612 2028 c-9 -9 -12 -85 -12 -279 l0 -267 46 -46 c50 -50 87 -65
116 -47 13 8 24 8 38 1 27 -15 303 -13 318 2 14 14 16 106 3 126 -6 10 -47 13
-175 13 l-166 0 0 242 c0 176 -3 246 -12 255 -7 7 -40 12 -78 12 -38 0 -71 -5
-78 -12z"/>
<path d="M5256 2027 c-16 -11 -18 -24 -14 -71 3 -34 11 -61 19 -67 8 -5 44 -9
81 -9 56 0 69 3 78 19 14 27 13 114 -2 129 -17 17 -139 16 -162 -1z"/>
<path d="M5452 2028 c-9 -9 -12 -92 -12 -314 0 -166 3 -309 6 -318 5 -13 22
-16 79 -16 48 0 77 4 82 13 4 6 10 118 13 247 l5 235 80 3 c43 2 85 8 92 14
20 16 18 134 -3 142 -31 12 -329 7 -342 -6z"/>
<path d="M5972 2032 c-9 -7 -12 -79 -10 -328 l3 -319 85 0 85 0 2 100 c2 55 5
111 8 124 6 22 7 23 25 6 12 -11 29 -16 45 -12 28 5 57 -18 76 -58 20 -41 89
-147 104 -157 15 -11 124 -9 146 2 11 6 19 21 19 36 0 24 -25 83 -39 94 -14
10 -51 78 -51 92 0 7 20 34 45 58 l45 44 0 107 0 107 -54 56 -53 56 -136 0
c-102 0 -139 -3 -149 -14 -12 -11 -17 -11 -33 0 -21 15 -141 19 -163 6z m202
-141 c6 -6 55 -12 107 -13 l94 -3 0 -55 0 -55 -94 -3 c-52 -1 -101 -8 -108
-14 -7 -6 -14 -33 -14 -62 -1 -45 -3 -42 -11 29 -5 46 -6 125 -1 185 6 79 9
92 11 53 2 -28 9 -56 16 -62z"/>
<path d="M6741 2026 c-7 -8 -11 -35 -9 -63 2 -39 7 -50 26 -58 21 -10 22 -14
24 -177 0 -93 1 -174 2 -180 1 -7 -11 -19 -26 -26 -25 -12 -28 -19 -28 -61 0
-79 6 -82 150 -79 l125 3 3 67 c3 63 2 67 -20 70 -23 3 -23 4 -26 186 l-2 182
25 10 c25 9 26 13 23 72 l-3 63 -126 3 c-101 2 -129 0 -138 -12z"/>
<path d="M7188 2029 c-21 -12 -23 -50 -6 -82 21 -41 151 -209 164 -214 15 -5
20 -33 7 -33 -5 0 -19 -17 -33 -38 -14 -20 -27 -39 -30 -42 -13 -11 -98 -127
-108 -147 -15 -28 -15 -66 0 -81 16 -16 130 -16 150 1 9 6 39 47 68 89 29 43
58 82 65 88 9 8 27 -13 70 -79 31 -49 67 -94 79 -100 12 -7 49 -11 81 -9 l60
3 3 49 c2 27 -1 52 -6 55 -5 3 -26 31 -47 61 -21 30 -56 79 -78 107 l-39 53
64 87 c110 150 109 149 106 195 l-3 43 -54 3 c-30 2 -65 1 -77 -2 -13 -4 -49
-43 -85 -91 -35 -47 -67 -85 -71 -85 -4 0 -8 -6 -8 -14 0 -16 -18 -31 -26 -23
-3 3 -1 14 5 24 8 16 0 34 -44 98 -30 43 -60 82 -67 86 -18 12 -120 10 -140
-2z"/>
<path d="M1573 1918 c-9 -18 -23 -42 -30 -53 -7 -11 -16 -29 -22 -40 -8 -20
-110 -193 -131 -225 -6 -8 -16 -26 -23 -40 -10 -20 -102 -178 -154 -265 -7
-11 -17 -32 -24 -47 -6 -16 -15 -28 -20 -28 -5 0 -9 -5 -9 -11 0 -6 -34 -67
-75 -136 -41 -68 -75 -127 -75 -130 0 -3 -20 -39 -45 -80 -25 -40 -45 -76 -45
-78 0 -2 -13 -24 -30 -48 -16 -25 -30 -49 -30 -54 0 -6 -9 -21 -20 -33 -12
-13 -20 -33 -18 -45 3 -19 11 -20 119 -23 l116 -3 19 28 c31 47 43 67 55 96 6
15 15 27 20 27 5 0 9 8 9 18 0 10 5 23 11 29 11 11 26 36 49 78 6 11 19 34 30
50 10 17 31 54 47 83 15 28 31 52 35 52 4 0 8 9 8 19 0 11 5 23 11 26 5 4 15
17 20 28 5 12 18 36 29 52 11 17 24 39 30 50 6 11 26 47 45 80 19 33 39 69 45
80 6 11 19 34 30 50 11 17 24 40 30 53 6 13 16 22 22 20 11 -4 105 -151 129
-203 6 -11 15 -29 22 -40 7 -11 34 -57 60 -103 l48 -83 117 3 117 3 -3 30 c-2
16 -7 32 -11 35 -4 3 -15 19 -24 35 -9 17 -21 39 -27 50 -5 11 -19 34 -30 50
-11 17 -31 53 -45 80 -14 28 -35 64 -45 80 -11 17 -24 39 -30 50 -6 11 -24 43
-41 70 -16 28 -37 64 -45 80 -8 17 -23 44 -34 60 -11 17 -24 39 -30 50 -6 11
-24 43 -41 70 -17 28 -35 61 -41 75 -6 14 -21 33 -34 43 -23 17 -24 17 -41
-15z"/>
<path d="M4036 1768 c-11 -43 -6 -106 10 -122 22 -22 275 -24 293 -2 7 9 11
40 9 78 l-3 63 -151 3 c-150 2 -152 2 -158 -20z"/>
<path d="M4210 1532 c-116 -2 -166 -6 -172 -15 -12 -19 -9 -101 5 -120 11 -16
31 -17 182 -15 l170 3 3 71 c2 52 -1 73 -10 75 -7 2 -87 3 -178 1z"/>
<path d="M1576 1423 c-3 -10 -15 -31 -26 -48 -11 -16 -24 -39 -29 -50 -5 -12
-33 -61 -63 -110 -30 -50 -57 -97 -61 -105 -4 -8 -16 -28 -27 -45 -11 -16 -25
-42 -31 -57 -6 -16 -15 -28 -19 -28 -4 0 -11 -11 -14 -25 -4 -14 -11 -25 -16
-25 -6 0 -10 -8 -10 -18 0 -10 -5 -23 -11 -29 -11 -11 -26 -36 -49 -78 -6 -11
-19 -33 -30 -50 -10 -16 -30 -53 -44 -82 -14 -28 -31 -53 -38 -55 -6 -2 -9
-12 -5 -21 6 -16 63 -17 779 -17 471 0 779 4 788 10 13 8 13 13 -3 37 -9 15
-36 61 -59 101 l-42 72 -538 0 c-526 0 -538 0 -538 19 0 11 5 23 11 26 5 4 15
17 20 28 5 12 18 36 29 52 11 17 24 39 29 50 5 11 41 73 80 138 39 65 71 120
71 122 0 2 -20 38 -45 79 -25 42 -45 80 -45 85 0 11 -34 41 -47 41 -6 0 -13
-8 -17 -17z"/>
<path d="M3240 1169 c-61 -11 -100 -56 -100 -116 0 -25 5 -43 11 -43 6 0 25
-6 42 -14 18 -8 40 -17 50 -20 10 -3 15 -10 12 -16 -9 -15 -61 -12 -75 5 -20
24 -40 18 -54 -17 -19 -43 -12 -54 39 -68 67 -19 129 -6 176 37 54 49 53 82
-3 123 -22 16 -49 30 -60 30 -10 0 -18 7 -18 15 0 9 9 15 24 15 13 0 29 -7 36
-15 13 -16 46 -20 53 -7 3 4 8 21 11 39 6 25 3 34 -11 41 -29 15 -85 19 -133
11z"/>
<path d="M4465 1174 c-6 -1 -26 -5 -46 -8 -21 -4 -49 -19 -68 -38 -36 -36 -74
-105 -61 -113 5 -3 12 -25 15 -50 8 -50 27 -71 81 -90 32 -11 46 -10 88 2 57
17 75 35 76 76 0 23 -4 27 -29 27 -17 0 -33 -4 -36 -10 -12 -19 -54 -10 -70
14 -23 34 -15 74 17 94 25 15 29 15 62 -3 27 -15 37 -16 49 -7 17 14 27 66 16
83 -6 11 -75 28 -94 23z"/>
<path d="M3575 1163 c-16 -12 -35 -107 -40 -200 l-5 -83 44 0 c41 0 46 3 63
37 19 38 27 45 77 59 57 17 92 119 57 164 -18 23 -28 25 -103 28 -46 1 -88 -1
-93 -5z m95 -107 c-14 -14 -22 -2 -14 18 5 14 9 15 15 4 4 -7 4 -17 -1 -22z"/>
<path d="M3955 1158 c-22 -71 -32 -136 -31 -203 l1 -80 95 3 c52 2 98 7 102
10 4 4 9 19 10 32 3 23 -1 25 -42 30 -59 7 -63 33 -5 40 39 5 40 6 40 45 0 39
-1 40 -40 46 -39 6 -39 6 13 8 46 1 54 4 62 26 18 49 7 55 -101 55 -71 0 -101
-4 -104 -12z"/>
<path d="M4736 1162 c-18 -29 -35 -109 -39 -184 -6 -101 2 -114 58 -104 49 9
57 39 68 256 2 34 1 35 -40 38 -22 2 -44 -1 -47 -6z"/>
<path d="M5074 1163 c-6 -5 -14 -15 -17 -23 -4 -8 -19 -35 -33 -60 -15 -25
-28 -56 -29 -69 -4 -28 -22 -68 -43 -93 -21 -25 -6 -38 42 -38 33 0 47 6 64
25 12 14 26 25 32 25 5 0 17 -11 26 -25 13 -19 25 -25 54 -25 21 0 42 6 48 13
11 13 2 93 -14 117 -5 8 -13 47 -19 85 l-10 70 -45 3 c-25 1 -50 -1 -56 -5z"/>
<path d="M5411 1156 c-15 -17 -34 -123 -27 -149 2 -11 -2 -39 -10 -64 -8 -24
-12 -48 -9 -53 3 -6 50 -10 104 -10 97 0 98 0 110 27 11 23 10 29 -5 40 -10 7
-32 13 -50 13 -30 0 -33 3 -36 33 -2 17 3 57 11 88 19 73 12 89 -37 89 -22 0
-45 -6 -51 -14z"/>
</g>
</svg>
